<?xml version="1.0" encoding="utf-8"?>
<!-- Generator: Adobe Illustrator 19.0.0, SVG Export Plug-In . SVG Version: 6.00 Build 0)  -->
<!DOCTYPE svg PUBLIC "-//W3C//DTD SVG 1.1//EN" "http://www.w3.org/Graphics/SVG/1.1/DTD/svg11.dtd">
<svg version="1.1" id="Layer_1" xmlns="http://www.w3.org/2000/svg" xmlns:xlink="http://www.w3.org/1999/xlink" x="0px" y="0px"
	 viewBox="0 0 1024 452" enable-background="new 0 0 1024 452" xml:space="preserve">
<g id="XMLID_2_">
	<g id="XMLID_4_">
		<g id="XMLID_61_">
			<path fill="#86171A" d="M799.4,383.5c0,0-18.9,0-18.9-18.9V251.5c0,0,0-17.7,17.7-17.7h24.4c0,0,17.7,0,17.7-17.7v-23.3
				c0,0,0-18.9,13.6-5.8l35.3,33.8c0,0,13.6,13.1,32.5,13l79.4,0c0,0,18.9,0,18.9,18.9v112c0,0,0,18.9-18.9,18.9H799.4z"/>
		</g>
		<g id="XMLID_60_">
			<path fill="#626366" d="M850.9,1.3c0,0,18.9,0,18.9,18.9v113.1c0,0,0,17.7-17.7,17.7h-24.4c0,0-17.7,0-17.7,17.7v23.3
				c0,0,0,18.9-13.6,5.8L761,164.1c0,0-13.6-13.1-32.5-13l-79.4,0c0,0-18.9,0-18.9-18.9v-112c0,0,0-18.9,18.9-18.9H850.9z"/>
		</g>
		<g id="XMLID_59_">
			<path fill="#FFFFFF" d="M694,43c0,0-2.4,0-2.4,2.4v10.9c0,0,0,2.4,2.4,2.4h28.8c0,0,2.4,0,2.4-2.4V45.4c0,0,0-2.4-2.4-2.4H694z"
				/>
		</g>
		<g id="XMLID_55_" opacity="0.5">
			<g id="XMLID_56_">
				<defs>
					<rect id="SVGID_1_" x="640.5" y="86.5" width="102.2" height="31.4"/>
				</defs>
				<clipPath id="SVGID_2_">
					<use xlink:href="#SVGID_1_"  overflow="visible"/>
				</clipPath>
				<g id="XMLID_58_" clip-path="url(#SVGID_2_)">
					<path fill="#FFFFFF" d="M660.6,100.3c0,0-2.4,0-2.4,2.4v10.9c0,0,0,2.4,2.4,2.4h62c0,0,2.4,0,2.4-2.4v-10.9c0,0,0-2.4-2.4-2.4
						H660.6z"/>
				</g>
			</g>
		</g>
		<g id="XMLID_51_" opacity="0.75">
			<g id="XMLID_52_">
				<defs>
					<rect id="SVGID_3_" x="673.9" y="57.9" width="69" height="31.4"/>
				</defs>
				<clipPath id="SVGID_4_">
					<use xlink:href="#SVGID_3_"  overflow="visible"/>
				</clipPath>
				<g id="XMLID_54_" clip-path="url(#SVGID_4_)">
					<path fill="#FFFFFF" d="M694,71.7c0,0-2.4,0-2.4,2.4v10.9c0,0,0,2.4,2.4,2.4h28.8c0,0,2.4,0,2.4-2.4V74c0,0,0-2.4-2.4-2.4H694z
						"/>
				</g>
			</g>
		</g>
		<g id="XMLID_45_">
			<path fill="#FFFFFF" d="M965.7,341.8c-1.2,0-2.1-0.9-2.1-2.1v-25.3c0-6.8-1.4-14.9-8.1-14.9c-2,0-4.1,1.1-5.6,3.1
				c-0.3,0.4-0.7,0.6-1.1,0.7c0.1,0.4,0,0.9-0.2,1.4c-0.4,0.9-0.8,1.8-1,2.8c-0.3,1.3-0.5,2.9-0.5,4.4v27.8c0,1.2-0.9,2.1-2.1,2.1
				h-2.4c-1.2,0-2.1-0.9-2.1-2.1v-26.9c0-6.4-2-13.3-7.8-13.3c-1.9,0-3.7,0.9-5.2,2.6c-0.3,0.4-0.8,0.6-1.3,0.7c0.1,0.5,0,1-0.2,1.4
				c-0.7,1.2-1.3,2.7-1.6,4.1c-0.4,1.2-0.5,2.7-0.5,4.3v27.1c0,1.2-0.9,2.1-2.1,2.1h-2.4c-1.2,0-2.1-0.9-2.1-2.1v-33.1
				c0-4.4-0.1-7.8-0.2-10.9c0-0.6,0.2-1.1,0.6-1.5c0.4-0.4,0.9-0.6,1.5-0.6h1.7c1.1,0,2,0.9,2.1,2l0.2,5.8h0.2
				c0.2-0.1,0.4-0.1,0.5-0.1c-0.1-0.5,0-0.9,0.2-1.4c2.6-4.9,6.3-7.4,10.9-7.4c4.9,0,8.8,3.6,10.5,9.7h0.2c0.2-0.1,0.4-0.2,0.6-0.2
				c-0.1-0.5,0-0.9,0.2-1.4c1-1.8,2.1-3.4,3.4-4.7c2.4-2.4,4.9-3.4,8.2-3.4c5.9,0,12.2,5.5,12.2,21v26.4c0,1.2-0.9,2.1-2.1,2.1
				H965.7z M863,342.8c-11.3,0-18.5-9.7-18.5-24.7c0-15.3,8-25.7,20-25.7c2.7,0,5.5,0.6,7.9,1.7c0.9,0.4,1.4,1.4,1.2,2.4l-0.6,2.5
				c-0.1,0.6-0.5,1.1-1.1,1.4c-0.3,0.2-0.6,0.2-1,0.2c-0.3,0-0.5-0.1-0.8-0.2c-1.6-0.7-3.5-1-5.6-1c-7.9,0-13.1,7.3-13.1,18.3
				c0,10.6,5.3,18.1,12.9,18.1c2.1,0,4-0.4,5.9-1.2c0.3-0.1,0.5-0.2,0.8-0.2c0.3,0,0.7,0.1,1,0.3c0.6,0.3,1,0.9,1.1,1.5l0.4,2.4
				c0.2,0.9-0.3,1.8-1.1,2.2C870.7,341.6,867.4,342.8,863,342.8 M836.3,342.9c-3.4,0-5.9-2.6-5.9-6.3s2.5-6.3,6-6.3
				c3.5,0,5.9,2.6,5.9,6.3C842.3,340.4,839.9,342.9,836.3,342.9 M893.2,299c-7.9,0-11.5,9.4-11.5,18.8c0,10.8,4.8,18.6,11.3,18.6
				c6.5,0,11.3-7.9,11.3-18.8C904.4,308.6,900.9,299,893.2,299 M892.8,342.9c-10.5,0-17.8-10.2-17.8-24.9c0-15.3,7.4-25.7,18.4-25.7
				c10.7,0,17.9,10,17.9,24.9C911.3,335,902,342.9,892.8,342.9"/>
		</g>
		<g id="XMLID_41_" opacity="0.75">
			<g id="XMLID_42_">
				<defs>
					<rect id="SVGID_5_" x="777.4" y="30.1" width="79" height="47.7"/>
				</defs>
				<clipPath id="SVGID_6_">
					<use xlink:href="#SVGID_5_"  overflow="visible"/>
				</clipPath>
				<g id="XMLID_44_" clip-path="url(#SVGID_6_)">
					<path fill="#FFFFFF" d="M797.2,75.8c-0.8,0-1.6-0.5-1.9-1.3c-0.3-0.8-0.1-1.7,0.5-2.3l27.8-27.8c0.4-0.4,0.9-0.6,1.5-0.6
						c0,0,0,0,0,0c0.6,0,1.1,0.3,1.5,0.7c7.4,8.1,11.5,18.2,12.1,29.1c0,0.6-0.2,1.1-0.6,1.5c-0.4,0.4-0.9,0.6-1.5,0.6H797.2z"/>
				</g>
			</g>
		</g>
		<g id="XMLID_40_">
			<path fill="#FFFFFF" d="M791.7,70.3c-0.3,0-0.5-0.1-0.8-0.2c-0.8-0.3-1.3-1.1-1.3-1.9V29c0-0.6,0.2-1.1,0.6-1.5
				c0.4-0.4,0.9-0.6,1.4-0.6c0,0,0.1,0,0.1,0c10.9,0.5,21,4.7,29.1,12c0.4,0.4,0.7,0.9,0.7,1.5c0,0.6-0.2,1.1-0.6,1.5l-27.8,27.8
				C792.8,70.1,792.3,70.3,791.7,70.3"/>
		</g>
		<g id="XMLID_36_" opacity="0.5">
			<g id="XMLID_37_">
				<defs>
					<rect id="SVGID_7_" x="721.8" y="19.2" width="128.4" height="108.7"/>
				</defs>
				<clipPath id="SVGID_8_">
					<use xlink:href="#SVGID_7_"  overflow="visible"/>
				</clipPath>
				<g id="XMLID_39_" clip-path="url(#SVGID_8_)">
					<path fill="#FFFFFF" d="M786,125.9c-25.6,0-46.5-20.9-46.5-46.5c0-24.9,19.5-45.3,44.3-46.4c0,0,0.1,0,0.1,0
						c0.5,0,1.1,0.2,1.4,0.6c0.4,0.4,0.6,0.9,0.6,1.5v22.3c0,1.1-0.8,2-1.9,2.1c-10.2,1-18.2,9.7-18.2,20c0,11.1,9,20.1,20.1,20.1
						c10.2,0,19-8,20-18.2c0.1-1.1,1-1.9,2.1-1.9h22.3c0.6,0,1.1,0.2,1.5,0.6c0.4,0.4,0.6,1,0.6,1.5
						C831.3,106.5,810.9,125.9,786,125.9"/>
				</g>
			</g>
		</g>
		<g id="XMLID_35_">
			<path fill="#86171A" d="M25.8,206.1c-8.8,0-17.3-2.1-23.8-6c-0.8-0.5-1.2-1.4-1-2.3l3.1-13.4c0.1-0.6,0.6-1.2,1.2-1.5
				c0.3-0.1,0.6-0.2,0.8-0.2c0.4,0,0.7,0.1,1,0.3c4.4,2.5,11.9,5.4,18.8,5.4c4.9,0,13.2-1.4,13.2-10.8c0-6.5-3.3-9.9-13.6-14.2
				c-15.1-6.2-22.9-16-22.7-28.3c0-18,12.8-30.5,31.2-30.5c9.9,0,17.1,3.1,20.5,5c0.8,0.5,1.2,1.4,1,2.3L52.6,125
				c-0.1,0.6-0.6,1.2-1.2,1.4c-0.3,0.1-0.6,0.2-0.9,0.2c-0.3,0-0.7-0.1-1-0.3c-3.5-1.9-8.9-4.1-15.1-4.1c-7.1,0-11.5,3.9-11.5,10.2
				c0,5.9,3.2,8.9,14.4,13.6c15.1,6.5,21.9,15.6,22.1,29.7C59.4,194.5,46.6,206.1,25.8,206.1"/>
		</g>
		<g id="XMLID_34_">
			<path fill="#86171A" d="M107.3,206.1c-25.9,0-42.6-19.4-42.6-49.5c0-31,18.5-51.9,46-51.9c6.4,0,13.6,1.5,18.7,3.8
				c0.9,0.4,1.4,1.4,1.2,2.3l-2.9,14.2c-0.1,0.6-0.5,1.1-1.1,1.4c-0.3,0.2-0.6,0.2-1,0.2c-0.3,0-0.6-0.1-0.8-0.2
				c-4.1-1.8-8.5-2.7-13.4-2.7c-6.5,0-12.3,2.3-16.6,6.7c-5.7,5.7-8.8,14.5-8.7,24.8c0,18.8,10.2,31.3,25.3,31.3
				c5.1,0,9.7-0.9,14-2.7c0.3-0.1,0.5-0.2,0.8-0.2c0.4,0,0.7,0.1,1,0.3c0.6,0.3,0.9,0.9,1,1.5l2.2,13.9c0.1,0.9-0.3,1.8-1.2,2.2
				C127.1,202.8,119.1,206.1,107.3,206.1"/>
		</g>
		<g id="XMLID_33_">
			<path fill="#86171A" d="M140.8,204.1c-1.2,0-2.1-0.9-2.1-2.1v-63.8c0-12.7-0.2-21.5-0.6-29.1c0-0.6,0.2-1.1,0.6-1.5
				c0.4-0.4,0.9-0.7,1.5-0.7h13.9c1.1,0,2.1,0.9,2.1,2l0.6,16.5h0.7c4.2-14.3,14.4-20.8,22.6-20.8c1.2,0,2.2,0.1,3.2,0.2
				c1,0.2,1.8,1,1.8,2.1v18.9c0,0.6-0.3,1.2-0.7,1.6c-0.4,0.3-0.9,0.5-1.4,0.5c-0.1,0-0.2,0-0.3,0c-1.2-0.2-2.4-0.3-3.7-0.3
				c-9.6,0-16.7,7.1-18.7,18.6c-0.3,2.2-0.7,4.8-0.7,7.6V202c0,1.2-0.9,2.1-2.1,2.1H140.8z"/>
		</g>
		<g id="XMLID_30_">
			<path fill="#86171A" d="M202.2,92.9c-6.7,0-11.5-5.5-11.5-13.2c0-7.8,4.9-13.4,11.7-13.4c7.8,0,11.6,6.9,11.7,13.4
				C214,86.1,210.3,92.9,202.2,92.9 M193.9,204.1c-1.2,0-2.1-0.9-2.1-2.1v-93c0-1.2,0.9-2.1,2.1-2.1h16.8c1.2,0,2.1,0.9,2.1,2.1v93
				c0,1.2-0.9,2.1-2.1,2.1H193.9z"/>
		</g>
		<g id="XMLID_27_">
			<path fill="#86171A" d="M268.2,124c-8.8,0-16.7,7.6-18.7,18.2c-0.3,1.3-0.8,3.7-0.8,6.2v15c0,2.6,0.2,4.8,0.7,6.8
				c2.1,10.1,9.6,17.2,18.3,17.2c12.8,0,21-12.6,21-32.1C288.7,136.6,280.4,124,268.2,124 M229.9,243.6c-1.2,0-2.1-0.9-2.1-2.1
				V139.2c0-11.9-0.3-21.9-0.6-30.2c0-0.6,0.2-1.1,0.6-1.5c0.4-0.4,0.9-0.6,1.5-0.6h14.2c1.1,0,2,0.9,2.1,2l0.9,13h0.3
				c6.2-11.2,16-17.2,28.3-17.2c20.2,0,34.8,20.8,34.8,49.5c0,16.3-4.1,29.8-11.8,39.2c-6.8,8.3-16,12.9-25.9,12.9
				c-10,0-18.9-5-23.2-13h-0.3v48.2c0,1.2-0.9,2.1-2.1,2.1H229.9z"/>
		</g>
		<g id="XMLID_26_">
			<path fill="#86171A" d="M348.3,206.1c-7.5,0-14-2.9-18-8c-4.3-5.5-6.4-14.4-6.4-27.2v-45.7H314c-1.2,0-2.1-0.9-2.1-2.1V109
				c0-1.2,0.9-2.1,2.1-2.1h9.8V86.5c0-0.9,0.6-1.8,1.5-2l16.2-4.6c0.2-0.1,0.4-0.1,0.6-0.1c0.5,0,0.9,0.1,1.3,0.4
				c0.5,0.4,0.8,1,0.8,1.7v25h17.8c1.2,0,2.1,0.9,2.1,2.1v14.2c0,1.2-0.9,2.1-2.1,2.1h-17.8v42.9c0,12.6,3.2,18,10.7,18
				c2,0,3.9-0.2,5.7-0.6c0.1,0,0.3,0,0.4,0c0.5,0,0.9,0.2,1.3,0.5c0.5,0.4,0.8,1,0.8,1.6l0.3,14.7c0,0.9-0.6,1.7-1.4,2
				C358.6,205.4,353.6,206.1,348.3,206.1"/>
		</g>
		<g id="XMLID_25_">
			<path fill="#86171A" d="M400.2,206.3c-10.8,0-28.8-5.5-28.8-42.3v-55c0-1.2,0.9-2.1,2.1-2.1h16.7c1.2,0,2.1,0.9,2.1,2.1v50.8
				c0,17.6,5.2,26.6,15.4,26.6c8.3,0,13.8-7.1,16-13.2c0.8-2.5,1.2-5.1,1.2-7.6V109c0-1.2,0.9-2.1,2.1-2.1h16.7
				c1.2,0,2.1,0.9,2.1,2.1v66c0,11.1,0.3,20.2,0.6,27c0,0.6-0.2,1.1-0.6,1.5c-0.4,0.4-0.9,0.6-1.5,0.6H430c-1.1,0-2-0.9-2.1-2
				l-0.9-12.8h-0.3C424.1,194.4,416.3,206.3,400.2,206.3"/>
		</g>
		<g id="XMLID_24_">
			<path fill="#86171A" d="M463,204.1c-1.2,0-2.1-0.9-2.1-2.1v-63.8c0-12.7-0.2-21.5-0.6-29.1c0-0.6,0.2-1.1,0.6-1.5
				c0.4-0.4,0.9-0.7,1.5-0.7h13.9c1.1,0,2.1,0.9,2.1,2l0.6,16.5h0.7c4.2-14.3,14.4-20.8,22.6-20.8c1.2,0,2.2,0.1,3.2,0.2
				c1,0.2,1.7,1,1.7,2.1v18.9c0,0.6-0.3,1.2-0.7,1.6c-0.4,0.3-0.9,0.5-1.4,0.5c-0.1,0-0.2,0-0.3,0c-1.2-0.2-2.4-0.3-3.7-0.3
				c-9.6,0-16.7,7.1-18.7,18.6c-0.3,2.1-0.7,4.8-0.7,7.6V202c0,1.2-0.9,2.1-2.1,2.1H463z"/>
		</g>
		<g id="XMLID_21_">
			<path fill="#86171A" d="M555.8,156.6c-22.2,0-26.8,9.9-26.8,18.2c0,13,9.1,14,11.9,14c8.7,0,14.6-6.9,16.3-13.4
				c0.6-2.1,0.7-4.3,0.7-5.4v-13.4C557.2,156.6,556.5,156.6,555.8,156.6 M534.2,206.3c-17,0-26-14.6-26-28.9
				c0-23.7,17.2-36.7,48.3-36.7h0.7l0-1.6c0-10.9-6-17-16.8-17c-6.7,0-14.1,2.1-19.8,5.6c-0.3,0.2-0.7,0.3-1.1,0.3
				c-0.3,0-0.5-0.1-0.8-0.2c-0.6-0.3-1.1-0.8-1.2-1.4l-3-11.7c-0.2-0.9,0.1-1.8,0.9-2.3c4.5-2.9,14.2-7.7,28.6-7.7
				c22,0,34.1,14.5,34.1,40.9v35.1c0,5.9,0.2,14.3,0.9,21c0.1,0.6-0.1,1.2-0.5,1.6c-0.4,0.4-1,0.7-1.6,0.7h-14.6
				c-1.1,0-1.9-0.8-2.1-1.8l-1.1-8.9h-0.5C553.2,201.6,544.2,206.3,534.2,206.3"/>
		</g>
		<g id="XMLID_18_">
			<path fill="#626366" d="M307.8,259.2c-10.7,0-16.5,11.9-17.4,23.8h32.9c0.1-3.1-0.2-13.9-6.2-19.9
				C314.6,260.4,311.5,259.2,307.8,259.2 M310.8,343.8c-23.8,0-38.6-18.8-38.6-49.1c0-25.2,11.4-52.3,36.6-52.3
				c11,0,19.5,5.3,25.2,15.6c4.5,8.3,7,19.5,7,31.7c0,3.8-0.2,6.7-0.4,8.5c-0.1,1.1-1,1.9-2.1,1.9h-48.2
				c0.6,23.3,17.8,25.2,23.1,25.2c7.1,0,12.9-1,18.3-3.3c0.3-0.1,0.5-0.2,0.8-0.2c0.4,0,0.7,0.1,1,0.3c0.6,0.3,0.9,0.9,1.1,1.5
				l2.1,12.7c0.1,0.9-0.3,1.8-1.2,2.2C330.5,340.9,322.2,343.8,310.8,343.8"/>
		</g>
		<g id="XMLID_17_">
			<path fill="#626366" d="M401.3,341.8c-1.2,0-2.1-0.9-2.1-2.1v-52.8c0-9.2-1.9-24.6-14.3-24.6c-8,0-13,7.7-14.8,14.4
				c-0.5,1.8-0.8,4.5-0.8,8v55c0,1.2-0.9,2.1-2.1,2.1h-14.9c-1.2,0-2.1-0.9-2.1-2.1v-66.2c0-11.2-0.2-19.5-0.5-26.8
				c0-0.6,0.2-1.1,0.6-1.5c0.4-0.4,0.9-0.7,1.5-0.7h12.4c1.1,0,2,0.9,2.1,2l0.8,12.6h0.5c3.3-7.7,11.5-16.8,23.8-16.8
				c6.2,0,26.6,3,26.6,41.7v55.6c0,1.2-0.9,2.1-2.1,2.1H401.3z"/>
		</g>
		<g id="XMLID_14_">
			<path fill="#626366" d="M464.9,261.2c-11,0-18.4,12.8-18.4,31.7c0,17.9,7.4,29.9,18.3,29.9c7,0,13.2-5.9,15.4-14.8
				c0.5-2.6,0.8-6,0.8-8.8v-15.8c0-2.6-0.2-4.8-0.6-6.6C478.1,267.2,472.2,261.2,464.9,261.2 M459.8,383.5c-9.7,0-18.9-2.5-25-6.9
				c-0.7-0.5-1-1.3-0.8-2.2l3.2-14.2c0.1-0.7,0.6-1.2,1.2-1.5c0.3-0.1,0.5-0.2,0.8-0.2c0.4,0,0.8,0.1,1.1,0.3
				c3.5,2.1,10.6,5.7,19.4,5.7c13.9,0,21.5-10.4,21.5-29.3v-8.4h-0.3c-4.6,9.1-12.5,14.4-21.8,14.4c-18.4,0-31.8-20-31.8-47.5
				c0-33.7,17.1-51.3,34-51.3c12.4,0,18.6,8.3,21.7,15.2h0.3l0.7-11c0.1-1.1,1-2,2.1-2h12.3c0.6,0,1.1,0.2,1.5,0.6
				c0.4,0.4,0.6,1,0.6,1.5c-0.3,5.8-0.5,13.4-0.5,25.8v55.1c0,21.3-3.5,35.3-11.1,44.1C481.9,379.6,472.1,383.5,459.8,383.5"/>
		</g>
		<g id="XMLID_11_">
			<path fill="#626366" d="M551.4,294.3c-11.1,0-24.3,3.2-24.3,18.2c0,13,8.2,14,10.8,14c7.9,0,13.2-6.9,14.8-13.4
				c0.5-2.1,0.6-4.3,0.6-5.4v-13.4C552.6,294.3,552,294.3,551.4,294.3 M531.9,344c-15.4,0-23.5-14.6-23.5-28.9
				c0-23.7,15.5-36.7,43.8-36.7h0.7l0-1.6c0-10.9-5.4-17-15.2-17c-5.9,0-12.5,2-17.7,5.4c-0.3,0.2-0.7,0.3-1.1,0.3
				c-0.3,0-0.5,0-0.8-0.1c-0.6-0.3-1.1-0.8-1.3-1.5l-2.7-11.5c-0.2-0.8,0.1-1.7,0.8-2.2c3.3-2.3,12.3-7.7,25.9-7.7
				c19.9,0,30.9,14.5,30.9,40.9v35.1c0,5.9,0.1,14.3,0.8,21.1c0.1,0.6-0.1,1.2-0.5,1.6c-0.4,0.4-1,0.7-1.6,0.7h-12.8
				c-1.1,0-2-0.8-2.1-1.9l-1-8.9H554C549,339.3,540.9,344,531.9,344"/>
		</g>
		<g id="XMLID_8_">
			<path fill="#626366" d="M618,261.2c-11,0-18.4,12.8-18.4,31.7c0,17.9,7.4,29.9,18.3,29.9c7,0,13.2-5.9,15.4-14.8
				c0.5-2.6,0.8-6,0.8-8.8v-15.8c0-2.6-0.2-4.8-0.6-6.6C631.2,267.2,625.3,261.2,618,261.2 M612.9,383.5c-9.7,0-18.9-2.5-25-6.9
				c-0.7-0.5-1-1.3-0.8-2.2l3.2-14.2c0.1-0.7,0.6-1.2,1.2-1.5c0.3-0.1,0.5-0.2,0.8-0.2c0.4,0,0.8,0.1,1.1,0.3
				c3.5,2.1,10.6,5.7,19.4,5.7c13.9,0,21.5-10.4,21.5-29.3v-8.4H634c-4.6,9.1-12.5,14.4-21.8,14.4c-18.4,0-31.8-20-31.8-47.5
				c0-33.7,17.1-51.3,34-51.3c12.4,0,18.6,8.3,21.7,15.2h0.3l0.7-11c0.1-1.1,1-2,2.1-2h12.3c0.6,0,1.1,0.2,1.5,0.6
				c0.4,0.4,0.6,1,0.6,1.5c-0.3,5.8-0.5,13.3-0.5,25.8v55.1c0,21.3-3.5,35.3-11.1,44.1C635,379.6,625.3,383.5,612.9,383.5"/>
		</g>
		<g id="XMLID_5_">
			<path fill="#626366" d="M697.8,259.2c-10.7,0-16.5,11.9-17.4,23.8h32.9c0.1-3.1-0.2-13.9-6.2-19.9
				C704.6,260.4,701.5,259.2,697.8,259.2 M700.8,343.8c-23.8,0-38.6-18.8-38.6-49.1c0-25.2,11.4-52.3,36.6-52.3
				c11,0,19.5,5.3,25.2,15.6c4.5,8.3,7,19.5,7,31.7c0,3.8-0.2,6.7-0.4,8.5c-0.1,1.1-1,1.9-2.1,1.9h-48.2
				c0.6,23.3,17.8,25.2,23.1,25.2c7.1,0,12.9-1,18.3-3.3c0.3-0.1,0.5-0.2,0.8-0.2c0.4,0,0.7,0.1,1,0.3c0.6,0.3,0.9,0.9,1.1,1.5
				l2.1,12.7c0.2,0.9-0.3,1.8-1.2,2.2C720.6,340.9,712.2,343.8,700.8,343.8"/>
		</g>
	</g>
	<g id="XMLID_3_">
		<path id="XMLID_62_" fill="#636467" d="M460.8,441.4c0-1.3,0.2-3.5,0.5-5.8h-0.1c-2.5,4.7-5.6,6.3-8.7,6.3c-4,0-6.5-3.2-6.5-7.4
			c0-7.9,5.8-16.1,15.6-16.1c2.1,0,4.5,0.4,6,0.8l-2.3,11.8c-0.7,3.9-1,7.9-0.9,10.4H460.8z M463.3,421.7c-0.6-0.2-1.4-0.3-2.7-0.3
			c-5.8,0-10.6,6-10.6,12.3c0,2.5,0.9,5,3.9,5c3.2,0,7-4.2,8.1-10.2L463.3,421.7z"/>
		<path id="XMLID_65_" fill="#636467" d="M470.2,441.4l3-16c0.5-2.5,0.8-4.7,1.1-6.6h3.5l-0.6,4.4h0.1c2-3.2,5.1-4.9,8.4-4.9
			c2.7,0,5.7,1.5,5.7,6.2c0,1-0.2,2.4-0.4,3.6l-2.5,13.2h-3.8l2.5-13c0.1-0.9,0.3-1.9,0.3-2.9c0-2.2-0.9-3.9-3.5-3.9
			c-2.7,0-6.7,3.3-7.7,8.9l-2,10.9H470.2z"/>
		<path id="XMLID_67_" fill="#636467" d="M513.4,410l-6,31.3h-3.9l6-31.3H513.4z"/>
		<path id="XMLID_69_" fill="#636467" d="M514.3,441.4l3-16c0.5-2.5,0.8-4.7,1.1-6.6h3.5l-0.6,4.4h0.1c2-3.2,5.1-4.9,8.4-4.9
			c2.7,0,5.7,1.5,5.7,6.2c0,1-0.2,2.4-0.4,3.6l-2.5,13.2h-3.8l2.5-13c0.1-0.9,0.3-1.9,0.3-2.9c0-2.2-0.9-3.9-3.5-3.9
			c-2.7,0-6.7,3.3-7.7,8.9l-2,10.9H514.3z"/>
		<path id="XMLID_71_" fill="#636467" d="M543.9,418.8l2,12.8c0.3,2.6,0.7,4.3,0.7,5.5h0.1c0.5-1.2,1.1-2.7,2.4-5.3l6.8-13.1h4.2
			l-12.5,22.5h-3.8l-3.9-22.5H543.9z"/>
		<path id="XMLID_73_" fill="#636467" d="M575.9,440.1c-1.7,0.9-4.4,1.8-7.4,1.8c-6,0-8.6-4-8.6-9c0-6.8,5-14.5,12.3-14.5
			c4.3,0,6.6,2.6,6.6,5.8c0,5.9-6.7,7.4-15,7.3c-0.2,1,0,3.1,0.5,4.2c0.9,2,2.7,3,5,3c2.7,0,4.7-0.8,6-1.5L575.9,440.1z
			 M575.1,424.2c0-1.8-1.4-2.8-3.4-2.8c-3.7,0-6.4,3.6-7.3,7.1C570.3,428.6,575.1,427.7,575.1,424.2L575.1,424.2z"/>
		<path id="XMLID_76_" fill="#636467" d="M580.8,441.4l3-16c0.5-2.5,0.8-4.7,1.1-6.6h3.5l-0.6,4.4h0.1c2-3.2,5.1-4.9,8.4-4.9
			c2.7,0,5.7,1.5,5.7,6.2c0,1-0.2,2.4-0.4,3.6l-2.5,13.2h-3.8l2.5-13c0.1-0.9,0.3-1.9,0.3-2.9c0-2.2-0.9-3.9-3.5-3.9
			c-2.7,0-6.7,3.3-7.7,8.9l-2,10.9H580.8z"/>
		<path id="XMLID_78_" fill="#636467" d="M615.5,413.4l-1,5.4h5.4l-0.6,3h-5.4l-2,10.9c-0.3,1.3-0.5,2.4-0.5,3.6
			c0,1.3,0.7,2.2,2.1,2.2c0.7,0,1.3,0,1.8-0.2l-0.2,3c-0.7,0.3-1.9,0.4-3,0.4c-3.4,0-4.7-2-4.7-4.4c0-1.3,0.2-2.6,0.5-4.2l2.2-11.4
			h-3.2l0.6-3h3.2l0.8-4.1L615.5,413.4z"/>
		<path id="XMLID_80_" fill="#636467" d="M620.1,441.4l4.3-22.5h3.8l-4.3,22.5H620.1z M627.3,415c-1.3,0-2.2-1-2.2-2.4
			c0-1.5,1.2-2.6,2.6-2.6c1.3,0,2.3,1,2.3,2.4C629.9,414,628.9,415,627.3,415L627.3,415z"/>
		<path id="XMLID_83_" fill="#636467" d="M635.8,418.8l2,12.8c0.3,2.6,0.7,4.3,0.7,5.5h0.1c0.5-1.2,1.1-2.7,2.4-5.3l6.8-13.1h4.2
			l-12.5,22.5h-3.8l-3.9-22.5H635.8z"/>
		<path id="XMLID_85_" fill="#636467" d="M667.8,440.1c-1.7,0.9-4.4,1.8-7.4,1.8c-6,0-8.6-4-8.6-9c0-6.8,5-14.5,12.3-14.5
			c4.3,0,6.6,2.6,6.6,5.8c0,5.9-6.7,7.4-15,7.3c-0.2,1,0,3.1,0.5,4.2c0.9,2,2.7,3,5,3c2.7,0,4.7-0.8,6-1.5L667.8,440.1z M667,424.2
			c0-1.8-1.4-2.8-3.4-2.8c-3.7,0-6.4,3.6-7.3,7.1C662.3,428.6,667,427.7,667,424.2L667,424.2z"/>
		<path id="XMLID_88_" fill="#636467" d="M687.2,410.4c2.4-0.4,5.1-0.7,7.8-0.7c5.2,0,9.2,1.5,11.5,4.2c1.7,1.7,2.9,4.6,2.9,8.5
			c0,5.7-2.3,11.3-6.3,14.7c-3.6,3-8.2,4.4-14.2,4.4c-2.7,0-5.6-0.1-7.6-0.4L687.2,410.4z M685.8,438.1c1.4,0.2,2.9,0.2,4,0.2
			c5,0,8.6-1.4,11.2-4.1c2.8-2.9,4.3-7.2,4.3-11.6c0-5.6-2.7-9.7-10.5-9.7c-1.4,0-3.2,0.1-4.3,0.3L685.8,438.1z"/>
		<path id="XMLID_91_" fill="#636467" d="M728,440.1c-1.7,0.9-4.4,1.8-7.4,1.8c-6,0-8.6-4-8.6-9c0-6.8,5-14.5,12.3-14.5
			c4.3,0,6.6,2.6,6.6,5.8c0,5.9-6.7,7.4-15,7.3c-0.2,1,0,3.1,0.5,4.2c0.9,2,2.7,3,5,3c2.7,0,4.7-0.8,6-1.5L728,440.1z M727.1,424.2
			c0-1.8-1.4-2.8-3.4-2.8c-3.7,0-6.4,3.6-7.3,7.1C722.4,428.6,727.1,427.7,727.1,424.2L727.1,424.2z"/>
		<path id="XMLID_94_" fill="#636467" d="M733,437.4c1,0.7,3,1.4,4.8,1.4c2.6,0,4.3-1.7,4.3-3.7c0-1.8-0.8-2.8-3.2-4.1
			c-2.6-1.4-4-3.4-4-5.7c0-4,3.4-7,8.2-7c2,0,3.8,0.6,4.7,1.1l-1.1,2.9c-0.8-0.5-2.2-1-3.9-1c-2.4,0-4,1.4-4,3.4
			c0,1.6,1.1,2.7,3.1,3.8c2.5,1.4,4.2,3.4,4.2,5.9c0,4.7-3.8,7.4-8.6,7.4c-2.4,0-4.6-0.7-5.6-1.5L733,437.4z"/>
		<path id="XMLID_96_" fill="#636467" d="M750.1,441.4l4.3-22.5h3.8l-4.3,22.5H750.1z M757.4,415c-1.3,0-2.2-1-2.2-2.4
			c0-1.5,1.2-2.6,2.6-2.6c1.3,0,2.3,1,2.3,2.4C760,414,758.9,415,757.4,415L757.4,415z"/>
		<path id="XMLID_99_" fill="#636467" d="M761,446.5c1.3,0.9,3.6,1.5,6,1.5c3.8,0,6.8-1.9,8.1-8l0.7-3.4h-0.1
			c-2,3.2-4.7,4.8-7.8,4.8c-4.6,0-6.9-3.8-6.9-7.8c0-7.7,5.6-15.2,14.3-15.2c2.6,0,5.5,0.7,7.3,1.6l-3.5,18.6
			c-0.9,4.8-2.2,8-4.5,10.1c-2.3,1.9-5.3,2.5-7.9,2.5c-2.7,0-5.3-0.7-6.7-1.6L761,446.5z M778.3,422.2c-0.7-0.4-2.1-0.8-3.7-0.8
			c-5.6,0-9.5,5.9-9.5,11.5c0,2.5,0.9,5.4,4.3,5.4c3.3,0,6.7-4.2,7.5-8.6L778.3,422.2z"/>
		<path id="XMLID_102_" fill="#636467" d="M785.2,441.4l3-16c0.5-2.5,0.8-4.7,1.1-6.6h3.5l-0.6,4.4h0.1c2-3.2,5.1-4.9,8.4-4.9
			c2.7,0,5.7,1.5,5.7,6.2c0,1-0.2,2.4-0.4,3.6l-2.5,13.2h-3.8l2.5-13c0.1-0.9,0.3-1.9,0.3-2.9c0-2.2-0.9-3.9-3.5-3.9
			c-2.7,0-6.7,3.3-7.7,8.9l-2,10.9H785.2z"/>
		<path id="XMLID_104_" fill="#636467" d="M826.2,440.1c-1.7,0.9-4.4,1.8-7.4,1.8c-6,0-8.6-4-8.6-9c0-6.8,5-14.5,12.3-14.5
			c4.3,0,6.6,2.6,6.6,5.8c0,5.9-6.7,7.4-15,7.3c-0.2,1,0,3.1,0.5,4.2c0.9,2,2.7,3,5,3c2.7,0,4.7-0.8,6-1.5L826.2,440.1z
			 M825.4,424.2c0-1.8-1.4-2.8-3.4-2.8c-3.7,0-6.4,3.6-7.3,7.1C820.6,428.6,825.4,427.7,825.4,424.2L825.4,424.2z"/>
		<path id="XMLID_107_" fill="#636467" d="M831.1,441.4l2.7-14.5c0.6-2.9,0.9-5.9,1.2-8h3.4c-0.2,1.6-0.4,3.2-0.7,4.9h0.1
			c1.5-3.1,3.9-5.4,6.9-5.4c0.4,0,0.8,0,1.1,0.1l-0.7,3.8c-0.3,0-0.6-0.1-1.1-0.1c-3.3,0-6.3,4-7.3,9.3l-1.9,10H831.1z"/>
		<path id="XMLID_109_" fill="#636467" d="M846.1,437.4c1,0.7,3,1.4,4.8,1.4c2.6,0,4.3-1.7,4.3-3.7c0-1.8-0.8-2.8-3.2-4.1
			c-2.6-1.4-4-3.4-4-5.7c0-4,3.4-7,8.2-7c2,0,3.8,0.6,4.7,1.1l-1.1,2.9c-0.8-0.5-2.2-1-3.9-1c-2.4,0-4,1.4-4,3.4
			c0,1.6,1.1,2.7,3.1,3.8c2.5,1.4,4.2,3.4,4.2,5.9c0,4.7-3.8,7.4-8.6,7.4c-2.4,0-4.6-0.7-5.6-1.5L846.1,437.4z"/>
		<path id="XMLID_111_" fill="#636467" d="M871.9,437.4c1,0.7,3,1.4,4.8,1.4c2.6,0,4.3-1.7,4.3-3.7c0-1.8-0.8-2.8-3.2-4.1
			c-2.6-1.4-4-3.4-4-5.7c0-4,3.4-7,8.2-7c2,0,3.8,0.6,4.7,1.1l-1.1,2.9c-0.8-0.5-2.2-1-3.9-1c-2.4,0-4,1.4-4,3.4
			c0,1.6,1.1,2.7,3.1,3.8c2.5,1.4,4.2,3.4,4.2,5.9c0,4.7-3.8,7.4-8.6,7.4c-2.4,0-4.6-0.7-5.6-1.5L871.9,437.4z"/>
		<path id="XMLID_113_" fill="#636467" d="M898.1,441.9c-5.6,0-8.8-4.2-8.8-9.3c0-7.4,5.2-14.3,12.5-14.3c6.1,0,8.8,4.6,8.8,9.3
			C910.6,434.7,905.7,441.9,898.1,441.9L898.1,441.9z M898.6,438.8c4.6,0,8-5.9,8-11.1c0-2.6-1.2-6.3-5.3-6.3c-4.8,0-8,5.9-8,11.1
			C893.3,436.1,895.4,438.8,898.6,438.8L898.6,438.8z"/>
		<path id="XMLID_116_" fill="#636467" d="M913.3,441.4l6.3-33h3.9l-6.3,33H913.3z"/>
		<path id="XMLID_118_" fill="#636467" d="M945.9,418.8l-3.1,16c-0.5,2.5-0.8,4.7-1,6.6h-3.5l0.6-4.2h-0.1c-2,2.9-5,4.7-8,4.7
			c-2.9,0-6-1.4-6-6.5c0-1.1,0.1-2.3,0.4-3.8l2.5-12.7h3.8l-2.4,12.6c-0.2,1.3-0.4,2.3-0.4,3.3c0,2.3,0.9,3.9,3.6,3.9
			c2.8,0,6.4-3.3,7.3-8.2l2.2-11.5H945.9z"/>
		<path id="XMLID_120_" fill="#636467" d="M958.3,413.4l-1,5.4h5.4l-0.6,3h-5.4l-2,10.9c-0.3,1.3-0.5,2.4-0.5,3.6
			c0,1.3,0.7,2.2,2.1,2.2c0.7,0,1.3,0,1.8-0.2l-0.2,3c-0.7,0.3-1.9,0.4-3,0.4c-3.4,0-4.7-2-4.7-4.4c0-1.3,0.2-2.6,0.5-4.2l2.2-11.4
			h-3.2l0.6-3h3.2l0.8-4.1L958.3,413.4z"/>
		<path id="XMLID_122_" fill="#636467" d="M962.9,441.4l4.3-22.5h3.8l-4.3,22.5H962.9z M970.1,415c-1.3,0-2.2-1-2.2-2.4
			c0-1.5,1.2-2.6,2.6-2.6c1.3,0,2.3,1,2.3,2.4C972.7,414,971.7,415,970.1,415L970.1,415z"/>
		<path id="XMLID_125_" fill="#636467" d="M982.7,441.9c-5.6,0-8.8-4.2-8.8-9.3c0-7.4,5.2-14.3,12.5-14.3c6.1,0,8.8,4.6,8.8,9.3
			C995.2,434.7,990.3,441.9,982.7,441.9L982.7,441.9z M983.2,438.8c4.6,0,8-5.9,8-11.1c0-2.6-1.2-6.3-5.3-6.3c-4.8,0-8,5.9-8,11.1
			C977.9,436.1,979.9,438.8,983.2,438.8L983.2,438.8z"/>
		<path id="XMLID_128_" fill="#636467" d="M997.9,441.4l3-16c0.5-2.5,0.8-4.7,1.1-6.6h3.5l-0.6,4.4h0.1c2-3.2,5.1-4.9,8.4-4.9
			c2.7,0,5.7,1.5,5.7,6.2c0,1-0.2,2.4-0.4,3.6l-2.5,13.2h-3.8l2.5-13c0.1-0.9,0.3-1.9,0.3-2.9c0-2.2-0.9-3.9-3.5-3.9
			c-2.7,0-6.7,3.3-7.7,8.9l-2,10.9H997.9z"/>
	</g>
</g>
</svg>
