<?xml version="1.0" encoding="utf-8"?>
<!-- Generator: Adobe Illustrator 17.1.0, SVG Export Plug-In . SVG Version: 6.00 Build 0)  -->
<!DOCTYPE svg PUBLIC "-//W3C//DTD SVG 1.1//EN" "http://www.w3.org/Graphics/SVG/1.1/DTD/svg11.dtd">
<svg version="1.1" id="Laag_1" xmlns="http://www.w3.org/2000/svg" xmlns:xlink="http://www.w3.org/1999/xlink" x="0px" y="0px"
	 viewBox="0 0 841.9 595.3" enable-background="new 0 0 841.9 595.3" xml:space="preserve">
<polygon fill="#2F7FC1" points="791.2,185.3 772.1,222.9 776,231.3 803.4,177.3 "/>
<polygon fill="#96B2DD" points="199.9,339.3 61.9,339.3 24.5,347.3 202.5,347.3 "/>
<polygon fill="#96B2DD" points="772.1,222.9 663.8,222.9 668,231.3 776,231.3 "/>
<polygon fill="#7EA2D4" points="61.9,339.3 244.1,257.5 228.3,255.9 24.5,347.3 "/>
<polygon fill="#2F7FC1" points="244.1,257.5 144.2,185.3 119.7,177.3 228.3,255.9 "/>
<polygon fill="#96B2DD" points="144.2,185.3 262,185.3 265.4,177.3 119.7,177.3 "/>
<polygon fill="#96B2DD" points="663.8,222.9 602.6,339.3 607,347.3 668,231.3 "/>
<polygon fill="#96B2DD" points="412.1,185.3 791.2,185.3 803.4,177.3 410.3,177.3 "/>
<polygon fill="#96B2DD" points="293.1,295.3 199.9,339.3 202.5,347.3 292.4,304.9 "/>
<polygon fill="#96B2DD" points="602.6,339.3 508.7,339.3 494.8,347.3 607,347.3 "/>
<polygon fill="#7EA2D4" points="262,185.3 316.6,227.7 318.1,218.2 265.4,177.3 "/>
<polygon fill="#2F7FC1" points="349.2,339.3 293.1,295.3 292.4,304.9 346.6,347.3 "/>
<polygon fill="#96B2DD" points="569.1,222.5 462.2,222.5 463.8,230.9 555.1,230.9 "/>
<polygon fill="#7EA2D4" points="508.7,339.3 569.1,222.5 555.1,230.9 494.8,347.3 "/>
<polygon fill="#96B2DD" points="467.4,339.3 349.2,339.3 346.6,347.3 491.3,347.3 "/>
<polygon fill="#7EA2D4" points="316.6,227.7 412.1,185.3 410.3,177.3 318.1,218.2 "/>
<polygon fill="#7EA2D4" points="369.9,263.5 467.4,339.3 491.3,347.3 386,265.4 "/>
<polygon fill="#96B2DD" points="462.2,222.5 369.9,263.5 386,265.4 463.8,230.9 "/>
<polygon fill="#231F20" points="199.9,339.3 61.9,339.3 24.5,347.3 202.5,347.3 "/>
<polygon fill="#231F20" points="772.1,222.9 663.8,222.9 668,231.3 776,231.3 "/>
<polygon fill="#06467C" points="663.8,222.9 602.6,339.3 607,347.3 668,231.3 "/>
<polygon fill="#06467C" points="293.1,295.3 199.9,339.3 202.5,347.3 292.4,304.9 "/>
<polygon fill="#231F20" points="602.6,339.3 508.7,339.3 494.8,347.3 607,347.3 "/>
<polygon fill="#231F20" points="569.1,222.5 462.2,222.5 463.8,230.9 555.1,230.9 "/>
<polygon fill="#231F20" points="467.4,339.3 349.2,339.3 346.6,347.3 491.3,347.3 "/>
<polygon fill="#06467C" points="462.2,222.5 369.9,263.5 386,265.4 463.8,230.9 "/>
<polygon fill="#0A6CB5" points="61.9,339.3 244.2,257.5 144.3,185.3 262.1,185.3 316.6,227.7 412.1,185.3 791.2,185.3 772.1,222.9 
	663.8,222.9 602.6,339.3 508.7,339.3 569.1,222.5 462.3,222.5 369.9,263.5 467.5,339.3 349.2,339.3 293.1,295.3 200,339.3 "/>
<polygon fill="#F6B19A" points="712.4,339.3 759.7,247.6 772.2,239.4 716.5,347.3 "/>
<polygon fill="#F6B19A" points="759.7,247.6 684.9,247.6 679,239.4 772.2,239.4 "/>
<polygon fill="#F6B19A" points="637.6,339.3 712.4,339.3 716.5,347.3 623.3,347.3 "/>
<polygon fill="#7A170F" points="712.4,339.3 759.7,247.6 772.2,239.4 716.5,347.3 "/>
<polygon fill="#231F20" points="637.6,339.3 712.4,339.3 716.5,347.3 623.3,347.3 "/>
<polygon fill="#F18C73" points="684.9,247.6 637.6,339.3 623.3,347.3 679,239.4 "/>
<polygon fill="#E84036" points="637.6,339.3 712.4,339.3 759.7,247.6 684.9,247.6 "/>
<polygon fill="#231F20" points="361.3,381.5 356.4,373.2 356.3,373.2 351.4,381.5 345.8,381.5 353.6,369.6 345.8,358.5 351.4,358.5 
	356.3,365.9 356.4,365.9 361.3,358.5 366.8,358.5 359.1,369.5 366.9,381.5 "/>
<polygon fill="#231F20" points="376.3,367.7 376.3,381.5 371.7,381.5 371.7,367.7 369.4,367.7 369.4,363.1 371.7,363.1 371.7,353.9 
	376.3,353.9 376.3,363.1 378.6,363.1 378.6,367.7 "/>
<path fill="#231F20" d="M387.8,367.7v13.8h-4.6v-13.8c0,0-0.1-4.6,4.6-4.6h9.2v4.6H387.8z"/>
<path fill="#231F20" d="M414.3,381.5h-9.2c-4.6,0-4.6-4.6-4.6-4.6v-9.2c0-4.6,4.6-4.6,4.6-4.6h9.2c4.7,0,4.6,4.6,4.6,4.6v6.9h-13.8
	v2.3h13.8C418.9,381.5,414.3,381.5,414.3,381.5 M414.3,367.7h-9.2v2.3h9.2V367.7z"/>
<path fill="#231F20" d="M443.1,381.5v-13.8h-4.6v13.8h-4.6v-13.8h-4.6v13.8h-4.6v-18.4h18.4c4.7,0,4.6,4.6,4.6,4.6v13.8H443.1z"/>
<path fill="#231F20" d="M467.3,370h-9.2v-2.3h9.2V370z M471.9,376.9h-13.8v-2.3h13.8v-6.9c0,0,0.1-4.6-4.6-4.6h-9.2
	c0,0-4.6,0-4.6,4.6v9.2c0,0,0,4.6,4.6,4.6h9.2C467.3,381.5,471.9,381.5,471.9,376.9"/>
<rect x="477.7" y="370" fill="#231F20" width="6.9" height="4.6"/>
<path fill="#231F20" d="M494.9,351.6h-4.6v4.6h4.6V351.6z M494.9,358.5h-4.6v23h4.6V358.5z"/>
<path fill="#231F20" d="M514.5,381.5v-13.8h-9.2v13.8h-4.6v-18.4h13.8c4.7,0,4.6,4.6,4.6,4.6v13.8H514.5z"/>
<polygon fill="#231F20" points="530.6,367.7 530.6,381.5 526,381.5 526,367.7 523.7,367.7 523.7,363.1 526,363.1 526,358.5 
	530.6,358.5 530.6,363.1 532.9,363.1 532.9,367.7 "/>
<path fill="#231F20" d="M551.4,381.5h-9.2c-4.6,0-4.6-4.6-4.6-4.6v-9.2c0-4.6,4.6-4.6,4.6-4.6h9.2c4.6,0,4.6,4.6,4.6,4.6v6.9h-13.8
	v2.3H556C556,381.5,551.4,381.5,551.4,381.5 M551.4,367.7h-9.2v2.3h9.2V367.7z"/>
<path fill="#231F20" d="M575.5,372.3h-9.2v-4.6h9.2V372.3z M580.2,386.1v-2.3c0,0,0-4.6-4.6-4.6h-4.6v-2.3h4.6c0,0,4.6-0.2,4.6-4.6
	v-9.2h-13.8c0,0-4.6,0-4.6,4.6v4.6c0,4.6,4.6,4.6,4.6,4.6v2.3c0,0-4.6,0-4.6,4.6v2.3c0,0,0,4.6,4.6,4.6h9.2
	C575.5,390.7,580.2,390.7,580.2,386.1 M575.5,386.1h-9.2v-2.3h9.2V386.1z"/>
<path fill="#231F20" d="M590.5,367.7v13.8h-4.6v-13.8c0,0,0-4.6,4.6-4.6h9.2v4.6H590.5z"/>
<path fill="#231F20" d="M617,376.9h-9.2v-2.3h9.2V376.9z M621.6,381.5v-13.8c0,0,0-4.6-4.6-4.6h-9.2c0,0-4.6,0-4.6,4.6H617v2.3h-9.2
	c-4.6,0-4.6,4.6-4.6,4.6v2.3c0,0,0,4.6,4.6,4.6H621.6z"/>
<polygon fill="#231F20" points="633.1,367.7 633.1,381.5 628.5,381.5 628.5,367.7 626.2,367.7 626.2,363.1 628.5,363.1 628.5,358.5 
	633.1,358.5 633.1,363.1 635.4,363.1 635.4,367.7 "/>
<path fill="#231F20" d="M644.6,356.2H640v4.6h4.6V356.2z M644.6,363.1H640v18.4h4.6V363.1z"/>
<path fill="#231F20" d="M664.2,376.9H655v-9.2h9.2V376.9z M668.8,376.9v-9.2c0,0,0-4.6-4.6-4.6H655c0,0-4.6,0-4.6,4.6v9.2
	c0,0,0,4.6,4.6,4.6h9.2C664.2,381.5,668.8,381.5,668.8,376.9"/>
<path fill="#231F20" d="M693,381.5v-13.8c0,0,0.1-4.6-4.6-4.6h-13.8v18.4h4.6v-13.8h9.2v13.8H693z"/>
<path fill="#231F20" d="M712.6,381.5h-9.2c-4.6,0-4.6-4.6-4.6-4.6h13.8v-2.3h-9.2c-4.6,0-4.6-4.6-4.6-4.6v-2.3
	c0-4.6,4.6-4.6,4.6-4.6h9.2c4.7,0,4.6,4.6,4.6,4.6h-13.8v2.3h9.2c0,0,4.6,0,4.6,4.6v2.3C717.2,376.9,717.2,381.5,712.6,381.5"/>
</svg>
