<svg xmlns="http://www.w3.org/2000/svg" version="1.1" width="184" height="80">
  <defs id="defs13176">
    <clipPath id="clipPath13186">
      <path d="m0.03 88.52 507.37 0 0-88.48-507.37 0 0 88.49z" id="path13188"/>
    </clipPath>
    <clipPath id="clipPath13202">
      <path d="m0.03 725.67 507.37 0 0-725.64-507.37 0 0 725.64z" id="path13204"/>
    </clipPath>
  </defs>
  <g transform="matrix(1.25,0,0,-1.25,-199.72719,130.46357)" id="g13180">
    <g transform="matrix(1.4359451,0,0,1.4359451,-133.65952,-17.865494)" id="g13311">
      <g transform="translate(238.5811,62.266059)" id="g13214">
        <path d="m0 0c-0.82 2.73-3.36 4.71-6.36 4.71-2.99 0-5.52-2-6.36-4.7L0 0zm-13.02-1.92c0-3.66 2.98-6.63 6.66-6.63 1.97 0 3.74 0.85 4.96 2.21l2.72 0c-1.53-2.64-4.4-4.42-7.68-4.42-4.91 0-8.88 3.96-8.88 8.84 0 4.88 3.97 8.84 8.88 8.84 4.9 0 8.87-3.96 8.87-8.84" id="path13216" fill="#eb2426"/>
      </g>
      <g transform="translate(219.5981,62.266059)" id="g13218">
        <path d="m0 0c-0.82 2.73-3.37 4.71-6.37 4.71-2.98 0-5.51-2-6.35-4.7L0 0zm-13.03-1.92c0-3.66 2.99-6.63 6.66-6.63 1.97 0 3.74 0.85 4.96 2.21l2.73 0c-1.54-2.64-4.4-4.42-7.69-4.42-4.9 0-8.87 3.96-8.87 8.84 0 4.88 3.97 8.84 8.87 8.84 4.9 0 8.88-3.96 8.88-8.84" id="path13220" fill="#eb2426"/>
      </g>
      <g transform="translate(286.2591,62.266059)" id="g13222">
        <path d="m0 0c-0.83 2.73-3.37 4.71-6.37 4.71-2.99 0-5.51-2-6.36-4.7L0 0zm-13.02-1.92c0-3.66 2.97-6.63 6.65-6.63 1.97 0 3.74 0.85 4.96 2.21l2.72 0c-1.53-2.64-4.4-4.42-7.68-4.42-4.9 0-8.87 3.96-8.87 8.84 0 4.88 3.97 8.84 8.87 8.84 4.9 0 8.88-3.96 8.88-8.84" id="path13224" fill="#eb2426"/>
      </g>
      <g transform="translate(263.1231,55.932059)" id="g13226">
        <path d="m0 0c0-1.26 1-2.28 2.24-2.28 2.54 0 4.68 0.71 5.32 1.68L8.84-2.08C7.57-3.46 5.1-4.39 2.24-4.39c-2.45 0-4.45 1.97-4.45 4.39l-0.01 0-0.01 11.02 0 0.01-6.27 0 0 2.25 6.27 0 0 8.82 2.21 0 0-8.82 3.42 0 0-2.25-3.4 0-0.01-0.01 0-11.02" id="path13228" fill="#eb2426"/>
      </g>
      <g transform="translate(290.0011,60.362059)" id="g13230">
        <path d="m0 0c0 4.88 3.97 8.85 8.87 8.85 3.29 0 6.16-1.78 7.73-4.47l-2.72 0C12.61 5.78 10.84 6.63 8.87 6.63 5.2 6.63 2.22 3.66 2.22 0l0-0.02c0-3.66 2.98-6.63 6.66-6.63 1.97 0 3.74 0.85 4.96 2.21l2.73 0C15.03-7.08 12.16-8.86 8.88-8.86 3.97-8.86 0-4.9 0-0.02" id="path13232" fill="#eb2426"/>
      </g>
      <g transform="translate(246.1811,40.983059)" id="g13234">
        <path d="m0 0c0.99 0.83 2.09 1.64 3.15 2.45 4.09 3.07 8.32 6.24 8.32 10.21 0 3.94-4.22 7.11-8.29 10.18-3.71 2.78-7.54 5.66-7.54 8.65 0 2.97 3.82 5.85 7.52 8.62 1.75 1.31 3.51 2.63 4.97 4.03l-2.89 0.01C4.22 43.31 3.12 42.48 2.03 41.66-2.05 38.59-6.27 35.42-6.27 31.48-6.27 27.52-2.04 24.35 2.05 21.28 5.74 18.5 9.57 15.62 9.57 12.66 9.57 9.67 5.73 6.79 2.03 4 0.29 2.7-1.46 1.38-2.9 0" id="path13236" fill="#eb2426"/>
      </g>
    </g>
  </g>
</svg>
